# Blender v3.0.0 OBJ File: ''
# www.blender.org
o target
v 0.017372 0.691864 -0.014063
v 0.017372 -0.966301 0.014063
v 0.017372 -0.966301 -0.014063
v 0.017372 0.691864 0.014063
v -0.017372 -0.966301 0.014063
v -0.017372 0.691864 0.014063
v -0.017372 -0.966301 -0.014063
v -0.017372 0.691864 -0.014063
v -0.017372 0.966301 0.014063
v -0.017372 0.966301 -0.014063
v 0.017372 0.966301 -0.014063
v -0.004307 0.946886 0.014063
v 0.004307 0.729781 0.253967
v 0.004307 0.946886 0.014063
v 0.017372 0.966301 0.014063
v -0.004307 0.711282 0.014063
v 0.004307 0.711282 0.014063
v -0.004307 0.711282 0.253967
v 0.004307 0.711282 0.253967
v -0.004307 0.729781 0.253967
vn 1.0000 0.0000 0.0000
vn 0.0000 -0.0000 1.0000
vn -1.0000 -0.0000 0.0000
vn 0.0000 0.0000 -1.0000
vn 0.0000 0.7415 0.6710
vn 0.0000 -1.0000 0.0000
vn 0.0000 1.0000 0.0000
s 1
f 1//1 2//1 3//1
f 4//2 5//2 2//2
f 6//3 7//3 5//3
f 8//4 3//4 7//4
f 9//3 8//3 6//3
f 10//4 1//4 8//4
f 11//1 4//1 1//1
f 12//5 13//5 14//5
f 3//6 5//6 7//6
f 10//7 15//7 11//7
f 16//2 4//2 17//2
f 17//2 15//2 14//2
f 12//2 6//2 16//2
f 14//2 9//2 12//2
f 13//2 18//2 19//2
f 17//1 13//1 19//1
f 16//3 20//3 12//3
f 17//6 18//6 16//6
f 1//1 4//1 2//1
f 4//2 6//2 5//2
f 6//3 8//3 7//3
f 8//4 1//4 3//4
f 9//3 10//3 8//3
f 10//4 11//4 1//4
f 11//1 15//1 4//1
f 12//5 20//5 13//5
f 3//6 2//6 5//6
f 10//7 9//7 15//7
f 16//2 6//2 4//2
f 17//2 4//2 15//2
f 12//2 9//2 6//2
f 14//2 15//2 9//2
f 13//2 20//2 18//2
f 17//1 14//1 13//1
f 16//3 18//3 20//3
f 17//6 19//6 18//6
